<svg width="53" height="53" viewBox="0 0 53 53" fill="none" xmlns="http://www.w3.org/2000/svg">
<g clip-path="url(#clip0_5037_12142)">
<path fill-rule="evenodd" clip-rule="evenodd" d="M52.9975 30.2726V5.15279C52.9987 4.4758 52.8661 3.80526 52.6076 3.17959C52.349 2.55392 51.9695 1.98544 51.4908 1.50674C51.0121 1.02804 50.4436 0.648532 49.818 0.389974C49.1923 0.131417 48.5218 -0.00110496 47.8448 6.93926e-06H32.5015L37.0562 27.6732C37.2814 29.0233 38.0324 30.2291 39.1447 31.0267C40.2571 31.8243 41.6401 32.1487 42.991 31.9289L52.9975 30.2726ZM5.15278 53.0003H37.3346L35.5403 42.0966C35.315 40.7466 34.564 39.5408 33.4517 38.7432C32.3394 37.9456 30.9564 37.6212 29.6054 37.841L6.97717e-06 42.7177V47.8475C-0.00110796 48.5245 0.131411 49.195 0.389967 49.8207C0.648523 50.4464 1.02803 51.0149 1.50673 51.4936C1.98543 51.9723 2.55391 52.3518 3.17958 52.6103C3.80524 52.8689 4.47579 53.0014 5.15278 53.0003ZM52.9981 33.9998V47.8479C52.9992 48.5249 52.8667 49.1954 52.6082 49.8211C52.3496 50.4467 51.9701 51.0152 51.4914 51.4939C51.0127 51.9726 50.4442 52.3521 49.8186 52.6107C49.1929 52.8693 48.5223 53.0018 47.8454 53.0007H41.2434L39.3341 41.4529C39.1147 40.1046 39.4398 38.7244 40.2378 37.6158C41.0359 36.5072 42.2415 35.7609 43.5897 35.541L52.9981 33.9998ZM29.0073 34.2292L6.97717e-06 39.0139V5.15279C-0.00110796 4.4758 0.131411 3.80525 0.389967 3.17959C0.648523 2.55392 1.02803 1.98544 1.50673 1.50674C1.98543 1.02803 2.55391 0.648525 3.17958 0.389968C3.80524 0.131412 4.47579 -0.00110796 5.15278 6.97719e-06H28.5933L33.263 28.2943C33.4828 29.6453 33.1584 31.0283 32.3608 32.1406C31.5632 33.253 30.3574 34.0039 29.0073 34.2292ZM4.99885 25.9106C4.99885 25.9106 14.0917 25.8923 18.4508 25.5144C20.348 25.3499 20.3776 24.4911 20.3776 22.7964C20.3776 21.1017 19.5638 20.8329 17.9806 20.6031C16.9619 20.4552 16.0682 20.3431 15.1717 20.2307L15.1716 20.2307H15.1716C13.5746 20.0304 11.9684 19.829 9.63022 19.422C6.98919 18.9623 4.66704 17.4754 4.41485 15.1634C4.26116 13.7476 4.19011 12.2798 4.37844 10.8757C4.74344 8.14773 7.19168 6.89674 9.91938 6.50404C15.5928 5.68726 24.7943 6.24645 24.7943 6.24645L24.7942 10.1098C24.7942 10.1098 17.4496 9.93678 12.7937 10.3021C11.0998 10.435 9.95742 11.3603 9.95346 12.6255C9.9491 14.0228 10.9744 14.777 12.2453 15.0181C13.8406 15.3208 14.4815 15.4091 15.4195 15.5384H15.4195C15.8799 15.6018 16.412 15.6751 17.1637 15.7885C17.3444 15.8158 17.5079 15.8403 17.6592 15.863L17.6595 15.863L17.6596 15.863C18.7626 16.0283 19.211 16.0955 20.8345 16.4051C23.1702 16.8504 25.6978 18.2977 25.9564 20.7208C26.1573 22.603 26.1143 24.2273 25.8861 25.9084C25.5383 28.4705 23.8458 29.6953 20.0131 30.0591C11.8808 30.831 5.03086 30.5002 5.03086 30.5002L4.99885 25.9106Z" fill="url(#paint0_linear_5037_12142)"/>
</g>
<defs>
<linearGradient id="paint0_linear_5037_12142" x1="4.27999e-08" y1="27.1364" x2="53.1073" y2="26.3971" gradientUnits="userSpaceOnUse">
<stop stop-color="#5D5D5D"/>
<stop offset="1" stop-color="#828282"/>
</linearGradient>
<clipPath id="clip0_5037_12142">
<rect width="53" height="53" fill="white"/>
</clipPath>
</defs>
</svg>
