<svg width="18" height="18" viewBox="0 0 18 18" fill="none" xmlns="http://www.w3.org/2000/svg">
<circle cx="9" cy="9" r="8.5" stroke="#FFB92D"/>
<path d="M7.64376 12.1751C7.64376 11.9133 7.72332 11.6573 7.87238 11.4396C8.02145 11.2219 8.23332 11.0523 8.4812 10.9521C8.72909 10.8519 9.00185 10.8257 9.265 10.8768C9.52815 10.9278 9.76988 11.0539 9.9596 11.239C10.1493 11.4242 10.2785 11.66 10.3309 11.9168C10.3832 12.1736 10.3563 12.4398 10.2537 12.6817C10.151 12.9236 9.97711 13.1303 9.75402 13.2758C9.53094 13.4212 9.26865 13.4988 9.00035 13.4988C8.82015 13.5063 8.64032 13.4772 8.47226 13.4134C8.30419 13.3495 8.15156 13.2522 8.02402 13.1278C7.89649 13.0033 7.79683 12.8544 7.73137 12.6904C7.66591 12.5264 7.63608 12.3509 7.64376 12.1751ZM8.13665 10.1188L7.79298 3.5H10.1715L9.84143 10.1188H8.13665Z" fill="#FFB92D"/>
</svg>
