<svg width="23" height="20" viewBox="0 0 23 20" fill="none" xmlns="http://www.w3.org/2000/svg">
<path d="M10.4364 0.473604L0.124912 18.5707C0.0428838 18.7156 -0.000188142 18.8797 6.17758e-07 19.0467C0.000189378 19.2138 0.0436321 19.3778 0.125988 19.5225C0.208343 19.6672 0.326728 19.7874 0.469311 19.8712C0.611895 19.955 0.773684 19.9994 0.938512 20H21.5615C21.7263 19.9994 21.8881 19.955 22.0307 19.8712C22.1733 19.7874 22.2917 19.6672 22.374 19.5225C22.4564 19.3778 22.4998 19.2138 22.5 19.0467C22.5002 18.8797 22.4571 18.7156 22.3751 18.5707L12.0636 0.473604C11.9807 0.329493 11.8619 0.209927 11.7191 0.126828C11.5764 0.0437294 11.4146 0 11.25 0C11.0854 0 10.9236 0.0437294 10.7809 0.126828C10.6381 0.209927 10.5193 0.329493 10.4364 0.473604Z" fill="#FF0000"/>
<path d="M10.0011 16.1751C10.0011 15.9133 10.0744 15.6573 10.2117 15.4396C10.349 15.2219 10.5441 15.0523 10.7724 14.9521C11.0007 14.8519 11.2519 14.8257 11.4943 14.8768C11.7367 14.9278 11.9593 15.0539 12.134 15.239C12.3088 15.4242 12.4278 15.66 12.476 15.9168C12.5242 16.1736 12.4995 16.4398 12.4049 16.6817C12.3103 16.9236 12.1502 17.1303 11.9447 17.2758C11.7392 17.4212 11.4977 17.4988 11.2505 17.4988C11.0846 17.5063 10.9189 17.4772 10.7642 17.4134C10.6094 17.3495 10.4688 17.2522 10.3513 17.1278C10.2339 17.0033 10.1421 16.8544 10.0818 16.6904C10.0215 16.5264 9.99402 16.3509 10.0011 16.1751ZM10.4551 14.1188L10.1385 7.5H12.3292L12.0252 14.1188H10.4551Z" fill="#353535"/>
<path d="M10.0011 16.1751C10.0011 15.9133 10.0744 15.6573 10.2117 15.4396C10.349 15.2219 10.5441 15.0523 10.7724 14.9521C11.0007 14.8519 11.2519 14.8257 11.4943 14.8768C11.7367 14.9278 11.9593 15.0539 12.134 15.239C12.3088 15.4242 12.4278 15.66 12.476 15.9168C12.5242 16.1736 12.4995 16.4398 12.4049 16.6817C12.3103 16.9236 12.1502 17.1303 11.9447 17.2758C11.7392 17.4212 11.4977 17.4988 11.2505 17.4988C11.0846 17.5063 10.9189 17.4772 10.7642 17.4134C10.6094 17.3495 10.4688 17.2522 10.3513 17.1278C10.2339 17.0033 10.1421 16.8544 10.0818 16.6904C10.0215 16.5264 9.99402 16.3509 10.0011 16.1751ZM10.4551 14.1188L10.1385 7.5H12.3292L12.0252 14.1188H10.4551Z" fill="#FEFEFE"/>
</svg>
